<svg width="60" height="60" viewBox="0 0 60 60" xmlns="http://www.w3.org/2000/svg">
  <path d="M36.6,10.1c-0.4-0.4-1-0.4-1.4,0L24.4,20.9c-0.4,0.4-0.4,1,0,1.4l10.8,10.8c0.4,0.4,1,0.4,1.4,0l10.8-10.8
  c0.4-0.4,0.4-1,0-1.4L36.6,10.1z" fill="#ffffff" fill-opacity="0.03"/>
  <path d="M13.4,33.3c-0.4-0.4-1-0.4-1.4,0L1.2,44.1c-0.4,0.4-0.4,1,0,1.4l10.8,10.8c0.4,0.4,1,0.4,1.4,0l10.8-10.8
  c0.4-0.4,0.4-1,0-1.4L13.4,33.3z" fill="#ffffff" fill-opacity="0.03"/>
  <path d="M13.4,10.1c-0.4-0.4-1-0.4-1.4,0L1.2,20.9c-0.4,0.4-0.4,1,0,1.4l10.8,10.8c0.4,0.4,1,0.4,1.4,0l10.8-10.8
  c0.4-0.4,0.4-1,0-1.4L13.4,10.1z" fill="#ffffff" fill-opacity="0.03"/>
  <path d="M36.6,33.3c-0.4-0.4-1-0.4-1.4,0L24.4,44.1c-0.4,0.4-0.4,1,0,1.4l10.8,10.8c0.4,0.4,1,0.4,1.4,0l10.8-10.8
  c0.4-0.4,0.4-1,0-1.4L36.6,33.3z" fill="#ffffff" fill-opacity="0.03"/>
</svg> 